<?xml version="1.0" encoding="utf-8"?>
<!-- Generator: Adobe Illustrator 21.0.2, SVG Export Plug-In . SVG Version: 6.00 Build 0)  -->
<svg version="1.1" id="Layer_1" xmlns="http://www.w3.org/2000/svg" xmlns:xlink="http://www.w3.org/1999/xlink" x="0px" y="0px"
	 viewBox="0 0 100 100" style="enable-background:new 0 0 100 100;" xml:space="preserve">
<style type="text/css">
	.st0{fill:none;stroke:#000000;stroke-width:2;stroke-linecap:round;stroke-linejoin:round;stroke-miterlimit:10;}
	.st1{fill:none;stroke:#000000;stroke-width:2;stroke-miterlimit:10;}
	.st2{fill:none;stroke:#000000;stroke-width:2;stroke-linecap:round;stroke-miterlimit:10;}
</style>
<g>
	<path class="st0" d="M47.6,53.2c0.1-0.1,0.3-0.3,0.4-0.4c7.9-8.2,7.8-21.2-0.2-29.4c-8.2-8.3-21.5-8.4-29.8-0.3s-8.4,21.5-0.3,29.8
		c5.8,5.9,14.2,7.7,21.5,5.3"/>
	<path class="st0" d="M33.9,59.2c0.3,3.2,1.2,6.3,2.6,9.1"/>
	<path class="st0" d="M45,78.5c4.5,3.3,10.1,5.3,16.1,5.3c15.1,0,27.3-12.2,27.3-27.3S76.2,29.1,61.1,29.1c-3,0-5.9,0.5-8.6,1.4"/>
	<path class="st0" d="M39.7,58.1c0,0,5.6,6.9,12.5,3.6c0,0-7.5-4.9-4.6-8.5"/>
	<path class="st0" d="M45,78.5c0,0-10.9,5.5-17.4-1.5c0,0,11-2.3,9.3-7.7"/>
</g>
</svg>
